<svg width="26" height="24" viewBox="0 0 26 24" fill="none" xmlns="http://www.w3.org/2000/svg">
<g clip-path="url(#clip0_1_17203)">
<path d="M21.4335 4.12907C19.8815 3.43166 18.2173 2.91784 16.4773 2.62355C16.4456 2.61787 16.4139 2.63206 16.3976 2.66045C16.1836 3.03328 15.9465 3.51966 15.7805 3.90196C13.9089 3.62754 12.047 3.62754 10.2139 3.90196C10.0478 3.51116 9.80211 3.03328 9.58712 2.66045C9.5708 2.63301 9.53914 2.61882 9.50745 2.62355C7.76837 2.9169 6.10415 3.43072 4.55125 4.12907C4.5378 4.13475 4.52628 4.14422 4.51863 4.15652C1.36195 8.77529 0.497209 13.2805 0.921424 17.7299C0.923344 17.7517 0.93582 17.7725 0.953096 17.7857C3.03578 19.2837 5.05322 20.1931 7.03319 20.7958C7.06488 20.8053 7.09845 20.794 7.11862 20.7684C7.58698 20.142 8.00449 19.4815 8.36245 18.7869C8.38358 18.7462 8.36341 18.698 8.32024 18.6819C7.65801 18.4358 7.02743 18.1359 6.42086 17.7952C6.37288 17.7678 6.36904 17.7006 6.41318 17.6684C6.54082 17.5747 6.6685 17.4772 6.79038 17.3788C6.81244 17.3609 6.84316 17.3571 6.86909 17.3684C10.854 19.1503 15.1681 19.1503 19.106 17.3684C19.132 17.3561 19.1627 17.3599 19.1857 17.3779C19.3076 17.4763 19.4353 17.5747 19.5639 17.6684C19.608 17.7006 19.6051 17.7678 19.5571 17.7952C18.9506 18.1425 18.32 18.4358 17.6568 18.6809C17.6136 18.697 17.5944 18.7462 17.6156 18.7869C17.9812 19.4805 18.3987 20.141 18.8584 20.7675C18.8776 20.794 18.9122 20.8053 18.9439 20.7958C20.9334 20.1931 22.9509 19.2837 25.0335 17.7857C25.0518 17.7725 25.0633 17.7526 25.0652 17.7309C25.5729 12.5869 24.2149 8.11858 21.4651 4.15746C21.4584 4.14422 21.4469 4.13475 21.4335 4.12907ZM8.95754 15.0207C7.7578 15.0207 6.76926 13.942 6.76926 12.6172C6.76926 11.2924 7.73863 10.2136 8.95754 10.2136C10.186 10.2136 11.165 11.3018 11.1458 12.6172C11.1458 13.942 10.1764 15.0207 8.95754 15.0207ZM17.0483 15.0207C15.8486 15.0207 14.8601 13.942 14.8601 12.6172C14.8601 11.2924 15.8294 10.2136 17.0483 10.2136C18.2768 10.2136 19.2558 11.3018 19.2366 12.6172C19.2366 13.942 18.2768 15.0207 17.0483 15.0207Z" fill="white"/>
</g>
<defs>
<clipPath id="clip0_1_17203">
<rect width="24.3493" height="23.8472" fill="white" transform="translate(0.820801)"/>
</clipPath>
</defs>
</svg>
