<svg width="25" height="25" viewBox="0 0 25 25" fill="none" xmlns="http://www.w3.org/2000/svg">
<g clip-path="url(#clip0_1_17194)">
<path d="M24.5851 11.9236C24.5851 5.33838 19.1343 0 12.4105 0C5.6866 0 0.23584 5.33838 0.23584 11.9236C0.23584 17.8749 4.6879 22.8079 10.5082 23.7024V15.3703H7.41697V11.9236H10.5082V9.29669C10.5082 6.30834 12.3258 4.65766 15.1067 4.65766C16.4383 4.65766 17.832 4.89054 17.832 4.89054V7.82487H16.2968C14.7845 7.82487 14.3128 8.74406 14.3128 9.68793V11.9236H17.6893L17.1495 15.3703H14.3128V23.7024C20.133 22.8079 24.5851 17.8749 24.5851 11.9236Z" fill="white"/>
</g>
<defs>
<clipPath id="clip0_1_17194">
<rect width="24.3493" height="23.8472" fill="white" transform="translate(0.23584)"/>
</clipPath>
</defs>
</svg>
