<svg width="26" height="25" viewBox="0 0 26 25" fill="none" xmlns="http://www.w3.org/2000/svg">
<g clip-path="url(#clip0_1_17206)">
<path d="M13.2313 2.14718C16.4842 2.14718 16.8694 2.16115 18.1487 2.21705C19.3376 2.26828 19.9796 2.4639 20.4077 2.62692C20.9736 2.84117 21.3826 3.102 21.8058 3.51653C22.2338 3.93572 22.4954 4.33162 22.7142 4.88589C22.8806 5.30508 23.0804 5.93852 23.1327 7.09828C23.1897 8.35584 23.204 8.73311 23.204 11.9143C23.204 15.1001 23.1897 15.4774 23.1327 16.7303C23.0804 17.8947 22.8806 18.5235 22.7142 18.9427C22.4954 19.497 22.2291 19.8975 21.8058 20.3121C21.3778 20.7312 20.9736 20.9874 20.4077 21.2017C19.9796 21.3647 19.3329 21.5603 18.1487 21.6115C16.8646 21.6674 16.4794 21.6814 13.2313 21.6814C9.97836 21.6814 9.59315 21.6674 8.31386 21.6115C7.12494 21.5603 6.48291 21.3647 6.0549 21.2017C5.48897 20.9874 5.07998 20.7266 4.65672 20.3121C4.2287 19.8929 3.96714 19.497 3.74838 18.9427C3.58193 18.5235 3.38219 17.8901 3.32987 16.7303C3.2728 15.4728 3.25854 15.0955 3.25854 11.9143C3.25854 8.72846 3.2728 8.35119 3.32987 7.09828C3.38219 5.93386 3.58193 5.30508 3.74838 4.88589C3.96714 4.33162 4.23346 3.93107 4.65672 3.51653C5.08473 3.09734 5.48897 2.84117 6.0549 2.62692C6.48291 2.4639 7.12969 2.26828 8.31386 2.21705C9.59315 2.16115 9.97836 2.14718 13.2313 2.14718ZM13.2313 0C9.92605 0 9.51231 0.013973 8.21399 0.0698649C6.92044 0.125757 6.03112 0.330694 5.26069 0.624127C4.45698 0.931532 3.77691 1.33675 3.1016 2.00279C2.42153 2.66418 2.00778 3.33023 1.69391 4.11272C1.3943 4.87191 1.18504 5.73824 1.12798 7.00512C1.07091 8.28132 1.05664 8.68654 1.05664 11.9236C1.05664 15.1607 1.07091 15.5659 1.12798 16.8374C1.18504 18.1043 1.3943 18.9753 1.69391 19.7299C2.00778 20.517 2.42153 21.183 3.1016 21.8444C3.77691 22.5058 4.45698 22.9157 5.25594 23.2184C6.03112 23.5119 6.91568 23.7168 8.20924 23.7727C9.50755 23.8286 9.9213 23.8426 13.2265 23.8426C16.5317 23.8426 16.9455 23.8286 18.2438 23.7727C19.5374 23.7168 20.4267 23.5119 21.1971 23.2184C21.9961 22.9157 22.6761 22.5058 23.3514 21.8444C24.0268 21.183 24.4453 20.517 24.7544 19.7345C25.054 18.9753 25.2632 18.109 25.3203 16.8421C25.3774 15.5706 25.3916 15.1653 25.3916 11.9283C25.3916 8.6912 25.3774 8.28598 25.3203 7.01444C25.2632 5.74755 25.054 4.87657 24.7544 4.12203C24.4548 3.33023 24.041 2.66418 23.361 2.00279C22.6856 1.34141 22.0056 0.931532 21.2066 0.628784C20.4314 0.335352 19.5469 0.130415 18.2533 0.0745226C16.9502 0.013973 16.5365 0 13.2313 0Z" fill="white"/>
<path d="M13.2313 5.79883C9.77866 5.79883 6.97754 8.54219 6.97754 11.9237C6.97754 15.3051 9.77866 18.0485 13.2313 18.0485C16.684 18.0485 19.4851 15.3051 19.4851 11.9237C19.4851 8.54219 16.684 5.79883 13.2313 5.79883ZM13.2313 15.8966C10.9914 15.8966 9.17468 14.1174 9.17468 11.9237C9.17468 9.72989 10.9914 7.95067 13.2313 7.95067C15.4712 7.95067 17.2879 9.72989 17.2879 11.9237C17.2879 14.1174 15.4712 15.8966 13.2313 15.8966Z" fill="white"/>
<path d="M21.1922 5.55661C21.1922 6.34842 20.5359 6.98652 19.7322 6.98652C18.9238 6.98652 18.2722 6.34376 18.2722 5.55661C18.2722 4.76481 18.9285 4.12671 19.7322 4.12671C20.5359 4.12671 21.1922 4.76947 21.1922 5.55661Z" fill="white"/>
</g>
<defs>
<clipPath id="clip0_1_17206">
<rect width="24.3493" height="23.8472" fill="white" transform="translate(1.05664)"/>
</clipPath>
</defs>
</svg>
