<svg width="26" height="25" viewBox="0 0 26 25" fill="none" xmlns="http://www.w3.org/2000/svg">
<g clip-path="url(#clip0_1_17197)">
<path d="M7.66003 21.6117C16.8462 21.6117 21.872 14.1562 21.872 7.69274C21.872 7.48314 21.8673 7.26889 21.8577 7.05929C22.8354 6.36683 23.6791 5.50912 24.3493 4.52646C23.4387 4.92322 22.472 5.18234 21.482 5.29497C22.5244 4.68307 23.3048 3.72179 23.6787 2.58934C22.6981 3.15848 21.6258 3.55996 20.5076 3.77657C19.7542 2.99255 18.7581 2.47343 17.6732 2.29948C16.5883 2.12553 15.4752 2.30643 14.5058 2.81423C13.5365 3.32202 12.7649 4.12842 12.3104 5.10874C11.856 6.08907 11.7439 7.18872 11.9915 8.23768C10.006 8.1401 8.0636 7.63495 6.29021 6.75498C4.51682 5.87501 2.95204 4.63987 1.69732 3.12963C1.0596 4.20645 0.864456 5.48069 1.15155 6.69337C1.43864 7.90605 2.18642 8.96617 3.24292 9.65827C2.44977 9.63361 1.67399 9.42446 0.979678 9.04812V9.10866C0.978967 10.2387 1.37786 11.3341 2.10856 12.2087C2.83925 13.0833 3.85664 13.6831 4.98779 13.9061C4.25306 14.1029 3.48193 14.1316 2.73406 13.9899C3.05325 14.9617 3.67428 15.8118 4.51047 16.4213C5.34666 17.0308 6.3563 17.3695 7.39847 17.39C5.62917 18.7511 3.44357 19.4894 1.19368 19.4859C0.794686 19.4853 0.39608 19.4614 0 19.4142C2.28564 20.8503 4.94445 21.6131 7.66003 21.6117Z" fill="white"/>
</g>
<defs>
<clipPath id="clip0_1_17197">
<rect width="24.3493" height="23.8472" fill="white"/>
</clipPath>
</defs>
</svg>
