<svg width="25" height="25" viewBox="0 0 25 25" fill="none" xmlns="http://www.w3.org/2000/svg">
<g clip-path="url(#clip0_1_17191)">
<path d="M24.1067 7.15416C24.1067 7.15416 23.8689 5.51 23.1366 4.78807C22.2092 3.8379 21.1725 3.83325 20.6969 3.77735C17.2918 3.53516 12.1794 3.53516 12.1794 3.53516H12.1699C12.1699 3.53516 7.05748 3.53516 3.65239 3.77735C3.17682 3.83325 2.14007 3.8379 1.21271 4.78807C0.480327 5.51 0.247297 7.15416 0.247297 7.15416C0.247297 7.15416 0 9.08709 0 11.0154V12.8225C0 14.7508 0.242542 16.6837 0.242542 16.6837C0.242542 16.6837 0.480327 18.3279 1.20795 19.0498C2.13532 20 3.35278 19.9674 3.89493 20.0699C5.84478 20.2515 12.1746 20.3074 12.1746 20.3074C12.1746 20.3074 17.2918 20.2981 20.6969 20.0605C21.1725 20.0046 22.2092 20 23.1366 19.0498C23.8689 18.3279 24.1067 16.6837 24.1067 16.6837C24.1067 16.6837 24.3493 14.7555 24.3493 12.8225V11.0154C24.3493 9.08709 24.1067 7.15416 24.1067 7.15416ZM9.65886 15.0163V8.31392L16.236 11.6767L9.65886 15.0163Z" fill="white"/>
</g>
<defs>
<clipPath id="clip0_1_17191">
<rect width="24.3493" height="23.8472" fill="white"/>
</clipPath>
</defs>
</svg>
